<?xml version="1.0" encoding="UTF-8" standalone="no"?>
<!DOCTYPE svg PUBLIC "-//W3C//DTD SVG 1.1//EN" "http://www.w3.org/Graphics/SVG/1.1/DTD/svg11.dtd">
<svg width="100%" height="100%" viewBox="0 0 721 428" version="1.1" xmlns="http://www.w3.org/2000/svg" xmlns:xlink="http://www.w3.org/1999/xlink" xml:space="preserve" xmlns:serif="http://www.serif.com/" style="fill-rule:evenodd;clip-rule:evenodd;stroke-linejoin:round;stroke-miterlimit:2;">
    <g transform="matrix(1,0,0,1,-23.7421,-272.691)">
        <g transform="matrix(1,0,0,1,0,-128)">
            <g transform="matrix(1,0,0,1,1.76029,0)">
                <path d="M389.395,828.667C388.979,828.67 375.5,828.67 375.085,828.667C354.38,828.524 347.146,810.021 347.146,810.021C347.146,810.021 26.892,809.707 24.994,810.021C23.096,810.336 21.513,808.385 22.11,806.962C25.701,798.406 42.272,799.567 42.272,799.567L346.745,799.818C346.745,799.818 350.293,799.591 351.025,800.695C364.427,820.907 375.02,820.08 375.02,820.08L389.459,820.08C389.459,820.08 400.052,820.907 413.454,800.695C414.187,799.591 417.735,799.818 417.735,799.818L722.207,799.567C722.207,799.567 738.778,798.406 742.37,806.962C742.967,808.385 741.383,810.336 739.485,810.021C737.587,809.707 417.334,810.021 417.334,810.021C417.334,810.021 410.1,828.524 389.395,828.667Z" style="fill:#5c757b;"/>
            </g>
        </g>
        <g transform="matrix(1,0,0,1,0,-128)">
            <path d="M59.354,797.926C59.354,797.926 214.736,788.529 347.846,797.926C347.846,797.926 248.052,742.083 59.354,797.926Z" style="fill:#e6c8bd;"/>
        </g>
        <g transform="matrix(1,0,0,1,0,-128)">
            <g transform="matrix(-0.996689,0,0,0.996689,766.894,2.5599)">
                <path d="M59.354,797.926C59.354,797.926 214.736,788.529 347.846,797.926C347.846,797.926 248.052,742.083 59.354,797.926Z" style="fill:#e6c8bd;"/>
            </g>
        </g>
        <g transform="matrix(1,0,0,1,0,-128)">
            <path d="M48.077,795.875C48.077,795.875 284.058,716.714 374.385,815.496C374.385,815.496 331.151,701.251 97.879,752.431C97.879,752.431 70.342,772.514 48.077,795.875Z" style="fill:#d07a7a;"/>
        </g>
        <g transform="matrix(1,0,0,1,0,-128)">
            <g transform="matrix(-1,0,0,1,767.985,0)">
                <path d="M48.077,795.875C48.077,795.875 284.058,716.714 374.385,815.496C374.385,815.496 331.151,701.251 97.879,752.431C97.879,752.431 70.342,772.514 48.077,795.875Z" style="fill:#d07a7a;"/>
            </g>
        </g>
        <g transform="matrix(1,0,0,1,0,-128)">
            <path d="M76.106,750.197C76.106,750.197 314.442,680.053 381.33,815.496C381.33,815.496 362.073,710.672 132.951,697.71C132.951,697.71 101.098,721.857 76.106,750.197Z" style="fill:#c9b2ad;"/>
        </g>
        <g transform="matrix(1,0,0,1,0,-128)">
            <g transform="matrix(-1,0,0,1,768.03,0)">
                <path d="M76.106,750.197C76.106,750.197 314.442,680.053 381.33,815.496C381.33,815.496 362.073,710.672 132.951,697.71C132.951,697.71 101.098,721.857 76.106,750.197Z" style="fill:#c9b2ad;"/>
            </g>
        </g>
        <g transform="matrix(1,0,0,1,0,-128)">
            <path d="M120.523,685.26C120.523,685.26 289.996,682.825 374.4,789.448C374.4,789.448 364.144,681.093 209.725,585.617C209.725,585.617 165.2,630.478 120.523,685.26Z" style="fill:#e6c8bd;"/>
        </g>
        <g transform="matrix(1,0,0,1,0,-128)">
            <g transform="matrix(-1,0,0,1,768,0)">
                <path d="M120.523,685.26C120.523,685.26 289.996,682.825 374.4,789.448C374.4,789.448 364.144,681.093 209.725,585.617C209.725,585.617 165.2,630.478 120.523,685.26Z" style="fill:#e6c8bd;"/>
            </g>
        </g>
        <g transform="matrix(1,0,0,1,0,-128)">
            <g transform="matrix(1,0,0,1,-2.34529,0)">
                <path d="M396.035,764.069C396.035,764.069 407.403,704.941 460.382,657.087C513.361,609.233 510.294,582.144 496.554,543.285C496.554,543.285 502.511,582.275 460.109,616.3C417.707,650.326 394.301,702.382 396.035,764.069Z" style="fill:#c4d0d3;"/>
            </g>
        </g>
        <g transform="matrix(1,0,0,1,0,-128)">
            <g transform="matrix(0.982674,-0.185344,0.185344,0.982674,-144.532,51.1915)">
                <path d="M396.035,764.069C396.035,764.069 407.403,704.941 460.382,657.087C513.361,609.233 510.294,582.144 496.554,543.285C496.554,543.285 502.511,582.275 460.109,616.3C417.707,650.326 394.301,702.382 396.035,764.069Z" style="fill:#c9b2ad;"/>
            </g>
        </g>
        <g transform="matrix(1,0,0,1,0,-128)">
            <path d="M377.572,778.524C377.572,778.524 379.923,686.539 354.877,645.405C329.832,604.27 342.69,568.153 342.69,568.153C342.69,568.153 309.606,612.267 344.6,684.549C379.594,756.831 377.572,778.524 377.572,778.524Z" style="fill:#c4d0d3;"/>
        </g>
        <g transform="matrix(1,0,0,1,0,-128)">
            <g transform="matrix(0.648782,-0.178623,0.178623,0.648782,186.452,203.641)">
                <path d="M114.481,469.342C105.777,405.476 44.795,421.514 55.764,468.392C60.179,487.262 107.431,548.678 115.042,551.164C121.615,548.486 168.39,487.66 172.723,462.96C185.221,391.712 117.526,406.231 114.481,469.342Z" style="fill:#d07a7a;"/>
            </g>
        </g>
        <g transform="matrix(1,0,0,1,0,-128)">
            <g transform="matrix(0.486026,0.260404,-0.260404,0.486026,489.273,296.134)">
                <path d="M114.481,469.342C105.777,405.476 44.795,421.514 55.764,468.392C60.179,487.262 107.431,548.678 115.042,551.164C121.615,548.486 168.39,487.66 172.723,462.96C185.221,391.712 117.526,406.231 114.481,469.342Z" style="fill:#d07a7a;"/>
            </g>
        </g>
        <g transform="matrix(1,0,0,1,0,-128)">
            <g transform="matrix(0.442114,-0.197593,0.197593,0.442114,168.099,422.554)">
                <path d="M114.481,469.342C105.777,405.476 44.795,421.514 55.764,468.392C60.179,487.262 107.431,548.678 115.042,551.164C121.615,548.486 168.39,487.66 172.723,462.96C185.221,391.712 117.526,406.231 114.481,469.342Z" style="fill:#d07a7a;"/>
            </g>
        </g>
        <g transform="matrix(1,0,0,1,0,-128)">
            <g transform="matrix(0.428665,0.0549607,-0.0688937,0.537336,320.044,333.385)">
                <path d="M196.643,370.593C189.421,433.731 192.509,425.928 141.702,429.277C193.367,435.895 191.044,429.281 195.532,493.03C200.812,429.687 197.585,433.945 243.324,431.805C197.013,426.109 202.411,430.933 196.643,370.593Z" style="fill:#c4d0d3;"/>
            </g>
        </g>
        <g transform="matrix(1,0,0,1,0,-128)">
            <g transform="matrix(0.375812,-0.0710928,0.0965898,0.510595,279.751,225.448)">
                <path d="M196.643,370.593C189.421,433.731 192.509,425.928 141.702,429.277C193.367,435.895 191.044,429.281 195.532,493.03C200.812,429.687 197.585,433.945 243.324,431.805C197.013,426.109 202.411,430.933 196.643,370.593Z" style="fill:#c9b2ad;"/>
            </g>
        </g>
        <g transform="matrix(1,0,0,1,0,-128)">
            <g transform="matrix(0.251687,0.0367896,-0.0454295,0.310794,295.588,282.994)">
                <path d="M196.643,370.593C189.421,433.731 192.509,425.928 141.702,429.277C193.367,435.895 191.044,429.281 195.532,493.03C200.812,429.687 197.585,433.945 243.324,431.805C197.013,426.109 202.411,430.933 196.643,370.593Z" style="fill:#c4d0d3;"/>
            </g>
        </g>
        <g transform="matrix(1,0,0,1,0,-128)">
            <g transform="matrix(0.490054,-0.0937506,0.10988,0.574364,135.975,306.283)">
                <path d="M196.643,370.593C189.421,433.731 192.509,425.928 141.702,429.277C193.367,435.895 191.044,429.281 195.532,493.03C200.812,429.687 197.585,433.945 243.324,431.805C197.013,426.109 202.411,430.933 196.643,370.593Z" style="fill:#c9b2ad;"/>
            </g>
        </g>
        <g transform="matrix(1,0,0,1,0,-128)">
            <g transform="matrix(0.159417,0.0198727,-0.0387561,0.310898,409.892,346.13)">
                <path d="M196.643,370.593C189.421,433.731 192.509,425.928 141.702,429.277C193.367,435.895 191.044,429.281 195.532,493.03C200.812,429.687 197.585,433.945 243.324,431.805C197.013,426.109 202.411,430.933 196.643,370.593Z" style="fill:#c4d0d3;"/>
            </g>
        </g>
    </g>
</svg>
